STARTFONT 2.1
COMMENT $Header: courR18.bdf,v 1.3 96/02/06 22:32:30 peterlin Exp $
COMMENT 
COMMENT Copyright International Business Machines,Corp. 1991
COMMENT IBM Courier is a Trademark of the IBM Corporation.
COMMENT 
COMMENT Automatic rendering from Adobe Type 1 outline:
COMMENT Primoz Peterlin <primoz.peterlin@biofiz.mf.uni-lj.si>
COMMENT cour.pfa rendered at 18.000000 points
COMMENT Checksum eb69a063
FONT -ibm-courier-medium-r-normal--18-180-75-75-m-83-iso8859-2
SIZE 18 75 75
FONTBOUNDINGBOX 14 18 -1 -2
STARTPROPERTIES 3
FONT_ASCENT 15
FONT_DESCENT 2
DEFAULT_CHAR 32
ENDPROPERTIES
CHARS 191
STARTCHAR space
ENCODING 32
SWIDTH 582 0
DWIDTH 11 0
BBX 0 0 0 1
BITMAP
ENDCHAR
STARTCHAR exclam
ENCODING 33
SWIDTH 582 0
DWIDTH 11 0
BBX 3 11 4 1
BITMAP
c0
c0
c0
c0
c0
40
40
00
00
c0
c0
ENDCHAR
STARTCHAR quotedbl
ENCODING 34
SWIDTH 582 0
DWIDTH 11 0
BBX 6 5 3 7
BITMAP
cc
cc
cc
88
88
ENDCHAR
STARTCHAR numbersign
ENCODING 35
SWIDTH 582 0
DWIDTH 11 0
BBX 9 14 1 0
BITMAP
1200
1200
1200
1200
1200
ff80
2200
2200
2200
ff80
2400
2400
2400
2400
ENDCHAR
STARTCHAR dollar
ENCODING 36
SWIDTH 582 0
DWIDTH 11 0
BBX 7 15 2 -2
BITMAP
10
3a
56
92
92
d0
38
14
92
92
d6
bc
10
10
10
ENDCHAR
STARTCHAR percent
ENCODING 37
SWIDTH 582 0
DWIDTH 11 0
BBX 9 12 1 1
BITMAP
7000
8800
8800
8800
7300
0e00
3800
6700
0880
0880
0880
0700
ENDCHAR
STARTCHAR ampersand
ENCODING 38
SWIDTH 582 0
DWIDTH 11 0
BBX 8 10 2 1
BITMAP
3e
42
40
20
33
4a
86
84
8c
73
ENDCHAR
STARTCHAR quoteright
ENCODING 39
SWIDTH 582 0
DWIDTH 11 0
BBX 3 5 4 7
BITMAP
60
60
40
c0
80
ENDCHAR
STARTCHAR parenleft
ENCODING 40
SWIDTH 582 0
DWIDTH 11 0
BBX 3 14 6 -1
BITMAP
20
40
40
80
80
80
80
80
80
80
80
40
40
20
ENDCHAR
STARTCHAR parenright
ENCODING 41
SWIDTH 582 0
DWIDTH 11 0
BBX 3 14 3 -1
BITMAP
80
40
40
20
20
20
20
20
20
20
20
40
40
80
ENDCHAR
STARTCHAR asterisk
ENCODING 42
SWIDTH 582 0
DWIDTH 11 0
BBX 7 7 2 5
BITMAP
10
10
d6
7c
38
6c
44
ENDCHAR
STARTCHAR plus
ENCODING 43
SWIDTH 582 0
DWIDTH 11 0
BBX 9 9 1 2
BITMAP
0800
0800
0800
0800
ff80
0800
0800
0800
0800
ENDCHAR
STARTCHAR comma
ENCODING 44
SWIDTH 582 0
DWIDTH 11 0
BBX 3 5 4 -1
BITMAP
60
60
40
c0
80
ENDCHAR
STARTCHAR minus
ENCODING 45
SWIDTH 582 0
DWIDTH 11 0
BBX 9 1 1 6
BITMAP
ff80
ENDCHAR
STARTCHAR period
ENCODING 46
SWIDTH 582 0
DWIDTH 11 0
BBX 3 3 4 1
BITMAP
c0
c0
c0
ENDCHAR
STARTCHAR slash
ENCODING 47
SWIDTH 582 0
DWIDTH 11 0
BBX 8 16 2 -2
BITMAP
01
01
02
02
04
04
08
08
10
10
20
20
40
40
80
80
ENDCHAR
STARTCHAR zero
ENCODING 48
SWIDTH 582 0
DWIDTH 11 0
BBX 7 12 2 1
BITMAP
38
44
82
82
82
82
82
82
82
82
44
38
ENDCHAR
STARTCHAR one
ENCODING 49
SWIDTH 582 0
DWIDTH 11 0
BBX 9 12 2 1
BITMAP
30
70
90
10
10
10
10
10
10
10
10
fe00
ENDCHAR
STARTCHAR two
ENCODING 50
SWIDTH 582 0
DWIDTH 11 0
BBX 7 12 2 1
BITMAP
38
44
82
82
02
02
04
08
10
22
42
fe
ENDCHAR
STARTCHAR three
ENCODING 51
SWIDTH 582 0
DWIDTH 11 0
BBX 7 12 2 1
BITMAP
78
84
04
04
04
38
04
02
02
02
84
f8
ENDCHAR
STARTCHAR four
ENCODING 52
SWIDTH 582 0
DWIDTH 11 0
BBX 8 12 1 1
BITMAP
04
0c
0c
14
24
24
44
84
ff
04
04
1f
ENDCHAR
STARTCHAR five
ENCODING 53
SWIDTH 582 0
DWIDTH 11 0
BBX 7 12 2 1
BITMAP
fc
80
80
80
80
f8
84
02
02
02
04
78
ENDCHAR
STARTCHAR six
ENCODING 54
SWIDTH 582 0
DWIDTH 11 0
BBX 7 12 2 1
BITMAP
1e
30
40
40
80
b8
c4
82
82
82
44
38
ENDCHAR
STARTCHAR seven
ENCODING 55
SWIDTH 582 0
DWIDTH 11 0
BBX 7 12 2 1
BITMAP
fe
82
82
04
04
04
08
08
08
10
10
10
ENDCHAR
STARTCHAR eight
ENCODING 56
SWIDTH 582 0
DWIDTH 11 0
BBX 7 12 2 1
BITMAP
38
44
82
82
44
38
44
82
82
82
44
38
ENDCHAR
STARTCHAR nine
ENCODING 57
SWIDTH 582 0
DWIDTH 11 0
BBX 7 12 2 1
BITMAP
38
44
82
82
82
46
3a
02
04
04
08
70
ENDCHAR
STARTCHAR colon
ENCODING 58
SWIDTH 582 0
DWIDTH 11 0
BBX 3 8 4 1
BITMAP
e0
e0
00
00
00
e0
e0
00
ENDCHAR
STARTCHAR semicolon
ENCODING 59
SWIDTH 582 0
DWIDTH 11 0
BBX 4 10 3 -1
BITMAP
70
70
00
00
00
30
30
60
60
40
ENDCHAR
STARTCHAR less
ENCODING 60
SWIDTH 582 0
DWIDTH 11 0
BBX 9 8 1 3
BITMAP
0180
0600
1800
6000
6000
1800
0600
0180
ENDCHAR
STARTCHAR equal
ENCODING 61
SWIDTH 582 0
DWIDTH 11 0
BBX 9 4 1 5
BITMAP
ff80
0000
0000
ff80
ENDCHAR
STARTCHAR greater
ENCODING 62
SWIDTH 582 0
DWIDTH 11 0
BBX 9 8 1 3
BITMAP
c000
3000
0c00
0300
0300
0c00
3000
c000
ENDCHAR
STARTCHAR question
ENCODING 63
SWIDTH 582 0
DWIDTH 11 0
BBX 7 11 2 1
BITMAP
7c
82
82
02
02
0c
10
10
00
18
18
ENDCHAR
STARTCHAR at
ENCODING 64
SWIDTH 582 0
DWIDTH 11 0
BBX 10 10 1 1
BITMAP
3f00
4080
8d40
9240
a240
a240
a280
9d00
4000
3f80
ENDCHAR
STARTCHAR A
ENCODING 65
SWIDTH 582 0
DWIDTH 11 0
BBX 11 11 0 1
BITMAP
3c00
0400
0a00
0a00
1100
1100
2080
3f80
4040
4040
f1e0
ENDCHAR
STARTCHAR B
ENCODING 66
SWIDTH 582 0
DWIDTH 11 0
BBX 9 11 1 1
BITMAP
fe00
4100
4100
4100
4200
7e00
4100
4080
4080
4100
fe00
ENDCHAR
STARTCHAR C
ENCODING 67
SWIDTH 582 0
DWIDTH 11 0
BBX 10 11 1 1
BITMAP
1e80
2180
4080
8080
8000
8000
8000
8000
4040
2080
1f00
ENDCHAR
STARTCHAR D
ENCODING 68
SWIDTH 582 0
DWIDTH 11 0
BBX 9 11 1 1
BITMAP
fe00
4100
4080
4080
4080
4080
4080
4080
4080
4100
fe00
ENDCHAR
STARTCHAR E
ENCODING 69
SWIDTH 582 0
DWIDTH 11 0
BBX 9 11 1 1
BITMAP
ff80
2080
2080
2080
2200
3e00
2200
2000
2080
2080
ff80
ENDCHAR
STARTCHAR F
ENCODING 70
SWIDTH 582 0
DWIDTH 11 0
BBX 9 11 1 1
BITMAP
ff80
2080
2080
2080
2200
3e00
2200
2000
2000
2000
f800
ENDCHAR
STARTCHAR G
ENCODING 71
SWIDTH 582 0
DWIDTH 11 0
BBX 10 11 1 1
BITMAP
1e80
2180
4080
8080
8000
8000
87c0
8080
4080
2080
1f00
ENDCHAR
STARTCHAR H
ENCODING 72
SWIDTH 582 0
DWIDTH 11 0
BBX 10 11 1 1
BITMAP
f780
4100
4100
4100
4100
7f00
4100
4100
4100
4100
f780
ENDCHAR
STARTCHAR I
ENCODING 73
SWIDTH 582 0
DWIDTH 11 0
BBX 7 11 2 1
BITMAP
fe
10
10
10
10
10
10
10
10
10
fe
ENDCHAR
STARTCHAR J
ENCODING 74
SWIDTH 582 0
DWIDTH 11 0
BBX 10 11 1 1
BITMAP
1fc0
0100
0100
0100
0100
0100
8100
8100
8100
4200
3c00
ENDCHAR
STARTCHAR K
ENCODING 75
SWIDTH 582 0
DWIDTH 11 0
BBX 10 11 1 1
BITMAP
f3c0
2100
2200
2400
2800
3800
2400
2200
2200
2100
f1c0
ENDCHAR
STARTCHAR L
ENCODING 76
SWIDTH 582 0
DWIDTH 11 0
BBX 10 11 1 1
BITMAP
f800
2000
2000
2000
2000
2000
2080
2080
2080
2080
ff80
ENDCHAR
STARTCHAR M
ENCODING 77
SWIDTH 582 0
DWIDTH 11 0
BBX 11 11 0 1
BITMAP
e0e0
60c0
5140
5140
4a40
4a40
4440
4440
4040
4040
f1e0
ENDCHAR
STARTCHAR N
ENCODING 78
SWIDTH 582 0
DWIDTH 11 0
BBX 10 11 1 1
BITMAP
e3c0
6080
5080
5080
4880
4880
4480
4480
4280
4380
f180
ENDCHAR
STARTCHAR O
ENCODING 79
SWIDTH 582 0
DWIDTH 11 0
BBX 10 11 1 1
BITMAP
1e00
6180
4080
8040
8040
8040
8040
8040
4080
6180
1e00
ENDCHAR
STARTCHAR P
ENCODING 80
SWIDTH 582 0
DWIDTH 11 0
BBX 9 11 1 1
BITMAP
fe00
2100
2080
2080
2080
2100
3e00
2000
2000
2000
fc00
ENDCHAR
STARTCHAR Q
ENCODING 81
SWIDTH 582 0
DWIDTH 11 0
BBX 10 13 1 -1
BITMAP
1e00
6180
4080
8040
8040
8040
8040
8040
4080
6180
1e00
1800
2780
ENDCHAR
STARTCHAR R
ENCODING 82
SWIDTH 582 0
DWIDTH 11 0
BBX 10 11 1 1
BITMAP
fe00
4100
4100
4100
4200
7c00
4400
4200
4200
4100
f1c0
ENDCHAR
STARTCHAR S
ENCODING 83
SWIDTH 582 0
DWIDTH 11 0
BBX 8 11 2 1
BITMAP
3d
43
81
81
40
3c
02
01
81
c3
bc
ENDCHAR
STARTCHAR T
ENCODING 84
SWIDTH 582 0
DWIDTH 11 0
BBX 9 11 1 1
BITMAP
ff80
8880
8880
8880
8880
0800
0800
0800
0800
0800
3e00
ENDCHAR
STARTCHAR U
ENCODING 85
SWIDTH 582 0
DWIDTH 11 0
BBX 12 11 0 1
BITMAP
79e0
2040
2040
2040
2040
2040
2040
2040
2040
1080
0f00
ENDCHAR
STARTCHAR V
ENCODING 86
SWIDTH 582 0
DWIDTH 11 0
BBX 11 11 0 1
BITMAP
f1e0
2080
2080
2080
1100
1100
1100
0a00
0a00
0400
0400
ENDCHAR
STARTCHAR W
ENCODING 87
SWIDTH 582 0
DWIDTH 11 0
BBX 12 11 0 1
BITMAP
f1e0
4040
4440
4440
4440
2a80
2a80
2a80
1100
1100
1100
ENDCHAR
STARTCHAR X
ENCODING 88
SWIDTH 582 0
DWIDTH 11 0
BBX 10 11 1 1
BITMAP
f3c0
4080
2100
1200
0c00
0c00
1200
2100
2100
4080
f3c0
ENDCHAR
STARTCHAR Y
ENCODING 89
SWIDTH 582 0
DWIDTH 11 0
BBX 11 11 0 1
BITMAP
f1e0
2080
2080
1100
1100
0a00
0400
0400
0400
0400
1f00
ENDCHAR
STARTCHAR Z
ENCODING 90
SWIDTH 582 0
DWIDTH 11 0
BBX 8 11 2 1
BITMAP
ff
82
84
88
08
10
20
21
41
81
ff
ENDCHAR
STARTCHAR bracketleft
ENCODING 91
SWIDTH 582 0
DWIDTH 11 0
BBX 3 14 6 -1
BITMAP
e0
80
80
80
80
80
80
80
80
80
80
80
80
e0
ENDCHAR
STARTCHAR backslash
ENCODING 92
SWIDTH 582 0
DWIDTH 11 0
BBX 8 16 2 -2
BITMAP
80
80
40
40
20
20
10
10
08
08
04
04
02
02
01
01
ENDCHAR
STARTCHAR bracketright
ENCODING 93
SWIDTH 582 0
DWIDTH 11 0
BBX 4 14 2 -1
BITMAP
f0
10
10
10
10
10
10
10
10
10
10
10
10
f0
ENDCHAR
STARTCHAR asciicircum
ENCODING 94
SWIDTH 582 0
DWIDTH 11 0
BBX 9 8 1 4
BITMAP
1800
1800
2400
2400
4200
4200
8100
8100
ENDCHAR
STARTCHAR underscore
ENCODING 95
SWIDTH 582 0
DWIDTH 11 0
BBX 13 1 -1 -1
BITMAP
fff8
ENDCHAR
STARTCHAR quoteleft
ENCODING 96
SWIDTH 582 0
DWIDTH 11 0
BBX 3 5 4 7
BITMAP
20
60
40
c0
c0
ENDCHAR
STARTCHAR a
ENCODING 97
SWIDTH 582 0
DWIDTH 11 0
BBX 9 8 1 1
BITMAP
3e00
0100
0100
3f00
c100
8100
8300
7d80
ENDCHAR
STARTCHAR b
ENCODING 98
SWIDTH 582 0
DWIDTH 11 0
BBX 10 12 0 1
BITMAP
e000
2000
2000
2000
2f00
3080
2040
2040
2040
2040
3080
ef00
ENDCHAR
STARTCHAR c
ENCODING 99
SWIDTH 582 0
DWIDTH 11 0
BBX 9 8 1 1
BITMAP
3e80
4180
8080
8000
8000
8000
4180
3e00
ENDCHAR
STARTCHAR d
ENCODING 100
SWIDTH 582 0
DWIDTH 11 0
BBX 10 12 1 1
BITMAP
0300
0100
0100
0100
3d00
4300
8100
8100
8100
8100
4300
3dc0
ENDCHAR
STARTCHAR e
ENCODING 101
SWIDTH 582 0
DWIDTH 11 0
BBX 10 8 1 1
BITMAP
3e00
4100
8080
ff80
8000
8000
4180
3e00
ENDCHAR
STARTCHAR f
ENCODING 102
SWIDTH 582 0
DWIDTH 11 0
BBX 8 12 2 1
BITMAP
1e
20
20
20
fe
20
20
20
20
20
20
fe
ENDCHAR
STARTCHAR g
ENCODING 103
SWIDTH 582 0
DWIDTH 11 0
BBX 10 11 1 -2
BITMAP
3dc0
4300
8100
8100
8100
8100
4300
3d00
0100
0200
3c00
ENDCHAR
STARTCHAR h
ENCODING 104
SWIDTH 582 0
DWIDTH 11 0
BBX 11 12 0 1
BITMAP
e000
2000
2000
2000
2f00
3080
2080
2080
2080
2080
2080
79e0
ENDCHAR
STARTCHAR i
ENCODING 105
SWIDTH 582 0
DWIDTH 11 0
BBX 7 12 2 1
BITMAP
10
10
00
00
f0
10
10
10
10
10
10
fe
ENDCHAR
STARTCHAR j
ENCODING 106
SWIDTH 582 0
DWIDTH 11 0
BBX 6 15 1 -2
BITMAP
04
04
00
00
7c
04
04
04
04
04
04
04
04
08
f0
ENDCHAR
STARTCHAR k
ENCODING 107
SWIDTH 582 0
DWIDTH 11 0
BBX 10 12 1 1
BITMAP
e000
2000
2000
2000
2780
2200
2400
3800
2400
2200
2100
e3c0
ENDCHAR
STARTCHAR l
ENCODING 108
SWIDTH 582 0
DWIDTH 11 0
BBX 7 12 2 1
BITMAP
f0
10
10
10
10
10
10
10
10
10
10
fe
ENDCHAR
STARTCHAR m
ENCODING 109
SWIDTH 582 0
DWIDTH 11 0
BBX 11 8 0 1
BITMAP
fb80
4440
4440
4440
4440
4440
4440
e660
ENDCHAR
STARTCHAR n
ENCODING 110
SWIDTH 582 0
DWIDTH 11 0
BBX 10 8 1 1
BITMAP
de00
6100
4100
4100
4100
4100
4100
f3c0
ENDCHAR
STARTCHAR o
ENCODING 111
SWIDTH 582 0
DWIDTH 11 0
BBX 9 8 1 1
BITMAP
3e00
4100
8080
8080
8080
8080
4100
3e00
ENDCHAR
STARTCHAR p
ENCODING 112
SWIDTH 582 0
DWIDTH 11 0
BBX 10 11 0 -2
BITMAP
ef00
3080
2040
2040
2040
2040
3080
2f00
2000
2000
fc00
ENDCHAR
STARTCHAR q
ENCODING 113
SWIDTH 582 0
DWIDTH 11 0
BBX 10 11 1 -2
BITMAP
3dc0
4300
8100
8100
8100
8100
4300
3d00
0100
0100
0fc0
ENDCHAR
STARTCHAR r
ENCODING 114
SWIDTH 582 0
DWIDTH 11 0
BBX 10 8 1 1
BITMAP
73c0
1c00
1000
1000
1000
1000
1000
fe00
ENDCHAR
STARTCHAR s
ENCODING 115
SWIDTH 582 0
DWIDTH 11 0
BBX 8 8 2 1
BITMAP
7e
82
82
78
07
81
c1
be
ENDCHAR
STARTCHAR t
ENCODING 116
SWIDTH 582 0
DWIDTH 11 0
BBX 8 11 2 1
BITMAP
40
40
40
fe
40
40
40
40
40
41
3e
ENDCHAR
STARTCHAR u
ENCODING 117
SWIDTH 582 0
DWIDTH 11 0
BBX 10 8 1 1
BITMAP
c700
4100
4100
4100
4100
4100
4300
3dc0
ENDCHAR
STARTCHAR v
ENCODING 118
SWIDTH 582 0
DWIDTH 11 0
BBX 11 8 0 1
BITMAP
f1e0
2080
2080
1100
1100
0a00
0a00
0400
ENDCHAR
STARTCHAR w
ENCODING 119
SWIDTH 582 0
DWIDTH 11 0
BBX 11 8 0 1
BITMAP
e0e0
4440
4440
4a40
2a80
2a80
1100
1100
ENDCHAR
STARTCHAR x
ENCODING 120
SWIDTH 582 0
DWIDTH 11 0
BBX 11 8 0 1
BITMAP
71c0
1100
0a00
0400
0a00
1100
2080
f1e0
ENDCHAR
STARTCHAR y
ENCODING 121
SWIDTH 582 0
DWIDTH 11 0
BBX 11 11 0 -2
BITMAP
f3c0
4100
2200
2200
1400
1400
0800
0800
1000
1000
fc00
ENDCHAR
STARTCHAR z
ENCODING 122
SWIDTH 582 0
DWIDTH 11 0
BBX 7 8 2 1
BITMAP
fe
82
84
08
10
22
42
fe
ENDCHAR
STARTCHAR braceleft
ENCODING 123
SWIDTH 582 0
DWIDTH 11 0
BBX 5 14 4 -1
BITMAP
18
20
20
20
20
20
c0
20
20
20
20
20
20
18
ENDCHAR
STARTCHAR bar
ENCODING 124
SWIDTH 582 0
DWIDTH 11 0
BBX 1 16 5 -2
BITMAP
80
80
80
80
80
80
80
80
80
80
80
80
80
80
80
80
ENDCHAR
STARTCHAR braceright
ENCODING 125
SWIDTH 582 0
DWIDTH 11 0
BBX 5 14 3 -1
BITMAP
c0
20
20
20
20
20
18
20
20
20
20
20
20
c0
ENDCHAR
STARTCHAR asciitilde
ENCODING 126
SWIDTH 582 0
DWIDTH 11 0
BBX 8 3 2 5
BITMAP
60
99
06
ENDCHAR
STARTCHAR space
ENCODING 160
SWIDTH 582 0
DWIDTH 11 0
BBX 0 0 0 1
BITMAP
ENDCHAR
STARTCHAR Aogonek
ENCODING 161
SWIDTH 582 0
DWIDTH 11 0
BBX 12 13 0 -1
BITMAP
3c00
0400
0a00
0a00
1100
1100
2080
3f80
4040
4040
f1e0
0040
0070
ENDCHAR
STARTCHAR breve
ENCODING 162
SWIDTH 582 0
DWIDTH 11 0
BBX 6 2 3 11
BITMAP
84
78
ENDCHAR
STARTCHAR Lslash
ENCODING 163
SWIDTH 582 0
DWIDTH 11 0
BBX 10 11 1 1
BITMAP
f800
2000
2000
2600
2800
3000
6080
a080
2080
2080
ff80
ENDCHAR
STARTCHAR currency
ENCODING 164
SWIDTH 582 0
DWIDTH 11 0
BBX 9 9 1 2
BITMAP
8080
5d00
2200
4100
4100
4100
2200
5d00
8080
ENDCHAR
STARTCHAR Lcaron
ENCODING 165
SWIDTH 582 0
DWIDTH 11 0
BBX 10 12 1 1
BITMAP
0300
fa00
2000
2000
2000
2000
2000
2080
2080
2080
2080
ff80
ENDCHAR
STARTCHAR Sacute
ENCODING 166
SWIDTH 582 0
DWIDTH 11 0
BBX 8 14 2 1
BITMAP
0c
10
00
3d
43
81
81
40
3c
02
01
81
c3
bc
ENDCHAR
STARTCHAR section
ENCODING 167
SWIDTH 582 0
DWIDTH 11 0
BBX 7 13 2 -1
BITMAP
3e
42
42
60
d0
88
44
22
16
0c
84
84
f8
ENDCHAR
STARTCHAR dieresis
ENCODING 168
SWIDTH 582 0
DWIDTH 11 0
BBX 3 2 4 11
BITMAP
a0
a0
ENDCHAR
STARTCHAR Scaron
ENCODING 169
SWIDTH 582 0
DWIDTH 11 0
BBX 8 15 2 1
BITMAP
22
14
08
00
3d
43
81
81
40
3c
02
01
81
c3
bc
ENDCHAR
STARTCHAR Scedilla
ENCODING 170
SWIDTH 582 0
DWIDTH 11 0
BBX 8 14 2 -2
BITMAP
3d
43
81
81
40
3c
02
01
81
c3
bc
08
04
3c
ENDCHAR
STARTCHAR Tcaron
ENCODING 171
SWIDTH 582 0
DWIDTH 11 0
BBX 9 15 1 1
BITMAP
2200
1400
0800
0000
ff80
8880
8880
8880
8880
0800
0800
0800
0800
0800
3e00
ENDCHAR
STARTCHAR Zacute
ENCODING 172
SWIDTH 582 0
DWIDTH 11 0
BBX 8 14 2 1
BITMAP
0c
10
00
ff
82
84
84
08
10
20
21
41
81
ff
ENDCHAR
STARTCHAR hyphen
ENCODING 173
SWIDTH 582 0
DWIDTH 11 0
BBX 4 1 4 6
BITMAP
f0
ENDCHAR
STARTCHAR Zcaron
ENCODING 174
SWIDTH 582 0
DWIDTH 11 0
BBX 8 15 2 1
BITMAP
22
14
08
00
ff
82
84
84
08
10
20
21
41
81
ff
ENDCHAR
STARTCHAR Zdotaccent
ENCODING 175
SWIDTH 582 0
DWIDTH 11 0
BBX 8 14 2 1
BITMAP
18
18
00
ff
82
84
84
08
10
20
21
41
81
ff
ENDCHAR
STARTCHAR degree
ENCODING 176
SWIDTH 582 0
DWIDTH 11 0
BBX 6 6 3 7
BITMAP
30
48
84
84
48
30
ENDCHAR
STARTCHAR aogonek
ENCODING 177
SWIDTH 582 0
DWIDTH 11 0
BBX 9 10 1 -1
BITMAP
3e00
0100
0100
3f00
c100
8100
8300
7d80
0100
0180
ENDCHAR
STARTCHAR ogonek
ENCODING 178
SWIDTH 582 0
DWIDTH 11 0
BBX 3 2 5 -1
BITMAP
80
c0
ENDCHAR
STARTCHAR lslash
ENCODING 179
SWIDTH 582 0
DWIDTH 11 0
BBX 7 12 2 1
BITMAP
f0
10
10
10
12
1c
70
90
10
10
10
fe
ENDCHAR
STARTCHAR acute
ENCODING 180
SWIDTH 582 0
DWIDTH 11 0
BBX 4 2 4 11
BITMAP
30
40
ENDCHAR
STARTCHAR lcaron
ENCODING 181
SWIDTH 582 0
DWIDTH 11 0
BBX 9 12 2 1
BITMAP
f600
1400
1000
1000
1000
1000
1000
1000
1000
1000
1000
fe00
ENDCHAR
STARTCHAR sacute
ENCODING 182
SWIDTH 582 0
DWIDTH 11 0
BBX 8 12 2 1
BITMAP
0c
10
00
00
7e
82
82
78
07
81
c1
be
ENDCHAR
STARTCHAR caron
ENCODING 183
SWIDTH 582 0
DWIDTH 11 0
BBX 5 2 3 11
BITMAP
d8
70
ENDCHAR
STARTCHAR cedilla
ENCODING 184
SWIDTH 582 0
DWIDTH 11 0
BBX 4 4 4 -2
BITMAP
40
60
10
e0
ENDCHAR
STARTCHAR scaron
ENCODING 185
SWIDTH 582 0
DWIDTH 11 0
BBX 8 12 2 1
BITMAP
44
28
10
00
7e
82
82
78
07
81
c1
be
ENDCHAR
STARTCHAR scedilla
ENCODING 186
SWIDTH 582 0
DWIDTH 11 0
BBX 8 11 2 -2
BITMAP
7e
82
82
78
07
81
c1
be
08
04
1c
ENDCHAR
STARTCHAR tcaron
ENCODING 187
SWIDTH 582 0
DWIDTH 11 0
BBX 8 12 2 1
BITMAP
0c
48
40
40
fe
40
40
40
40
40
41
3e
ENDCHAR
STARTCHAR zacute
ENCODING 188
SWIDTH 582 0
DWIDTH 11 0
BBX 7 12 2 1
BITMAP
0c
10
00
00
fe
84
08
10
20
42
82
fe
ENDCHAR
STARTCHAR hungarumlaut
ENCODING 189
SWIDTH 582 0
DWIDTH 11 0
BBX 6 2 3 11
BITMAP
48
90
ENDCHAR
STARTCHAR zcaron
ENCODING 190
SWIDTH 582 0
DWIDTH 11 0
BBX 7 12 2 1
BITMAP
44
28
10
00
fe
84
08
10
20
42
82
fe
ENDCHAR
STARTCHAR zdotaccent
ENCODING 191
SWIDTH 582 0
DWIDTH 11 0
BBX 7 12 2 1
BITMAP
18
18
00
00
fe
84
08
10
20
42
82
fe
ENDCHAR
STARTCHAR Racute
ENCODING 192
SWIDTH 582 0
DWIDTH 11 0
BBX 10 14 1 1
BITMAP
0c00
1000
0000
fe00
4100
4100
4100
4300
7e00
4400
4200
4200
4100
f1c0
ENDCHAR
STARTCHAR Aacute
ENCODING 193
SWIDTH 582 0
DWIDTH 11 0
BBX 11 14 0 1
BITMAP
0300
0400
0000
3c00
0400
0a00
0a00
1100
1100
2080
3f80
4040
4040
f1e0
ENDCHAR
STARTCHAR Acircumflex
ENCODING 194
SWIDTH 582 0
DWIDTH 11 0
BBX 11 14 0 1
BITMAP
0400
0a00
0000
3c00
0400
0a00
0a00
1100
1100
2080
3f80
4040
4040
f1e0
ENDCHAR
STARTCHAR Abreve
ENCODING 195
SWIDTH 582 0
DWIDTH 11 0
BBX 11 15 0 1
BITMAP
0000
1100
0e00
0000
3c00
0400
0a00
0a00
1100
1100
2080
3f80
4040
4040
f1e0
ENDCHAR
STARTCHAR Adieresis
ENCODING 196
SWIDTH 582 0
DWIDTH 11 0
BBX 11 14 0 1
BITMAP
0a00
0a00
0000
3c00
0400
0a00
0a00
1100
1100
2080
3f80
4040
4040
f1e0
ENDCHAR
STARTCHAR Lacute
ENCODING 197
SWIDTH 582 0
DWIDTH 11 0
BBX 10 14 1 1
BITMAP
1800
2000
0000
f800
2000
2000
2000
2000
2000
2080
2080
2080
2080
ff80
ENDCHAR
STARTCHAR Cacute
ENCODING 198
SWIDTH 582 0
DWIDTH 11 0
BBX 10 14 1 1
BITMAP
0600
0800
0000
1e80
2180
4080
8080
8000
8000
8000
8000
4040
2080
1f00
ENDCHAR
STARTCHAR Ccedilla
ENCODING 199
SWIDTH 582 0
DWIDTH 11 0
BBX 10 14 1 -2
BITMAP
1e80
2180
4080
8080
8000
8000
8000
8000
4040
2080
1f00
0400
0200
1e00
ENDCHAR
STARTCHAR Ccaron
ENCODING 200
SWIDTH 582 0
DWIDTH 11 0
BBX 10 15 1 1
BITMAP
1100
0a00
0400
0000
1e80
2180
4080
8080
8000
8000
8000
8000
4040
2080
1f00
ENDCHAR
STARTCHAR Eacute
ENCODING 201
SWIDTH 582 0
DWIDTH 11 0
BBX 9 14 1 1
BITMAP
0600
0800
0000
ff80
2080
2080
2080
2200
3e00
2200
2000
2080
2080
ff80
ENDCHAR
STARTCHAR Eogonek
ENCODING 202
SWIDTH 582 0
DWIDTH 11 0
BBX 9 13 1 -1
BITMAP
ff80
2080
2080
2080
2200
3e00
2200
2000
2080
2080
ff80
0200
0300
ENDCHAR
STARTCHAR Edieresis
ENCODING 203
SWIDTH 582 0
DWIDTH 11 0
BBX 9 14 1 1
BITMAP
1400
1400
0000
ff80
2080
2080
2080
2200
3e00
2200
2000
2080
2080
ff80
ENDCHAR
STARTCHAR Ecaron
ENCODING 204
SWIDTH 582 0
DWIDTH 11 0
BBX 9 15 1 1
BITMAP
2200
1400
0800
0000
ff80
2080
2080
2080
2200
3e00
2200
2000
2080
2080
ff80
ENDCHAR
STARTCHAR Iacute
ENCODING 205
SWIDTH 582 0
DWIDTH 11 0
BBX 7 14 2 1
BITMAP
0c
10
00
fe
10
10
10
10
10
10
10
10
10
fe
ENDCHAR
STARTCHAR Icircumflex
ENCODING 206
SWIDTH 582 0
DWIDTH 11 0
BBX 7 14 2 1
BITMAP
10
28
00
fe
10
10
10
10
10
10
10
10
10
fe
ENDCHAR
STARTCHAR Dcaron
ENCODING 207
SWIDTH 582 0
DWIDTH 11 0
BBX 9 15 1 1
BITMAP
2200
1400
0800
0000
fe00
4100
4080
4080
4080
4080
4080
4080
4080
4100
fe00
ENDCHAR
STARTCHAR Eth
ENCODING 208
SWIDTH 582 0
DWIDTH 11 0
BBX 9 11 1 1
BITMAP
fe00
4100
4080
4080
4080
f880
4080
4080
4080
4100
fe00
ENDCHAR
STARTCHAR Nacute
ENCODING 209
SWIDTH 582 0
DWIDTH 11 0
BBX 10 14 1 1
BITMAP
0600
0800
0000
e3c0
6080
5080
5080
4880
4880
4480
4480
4280
4380
f180
ENDCHAR
STARTCHAR Ncaron
ENCODING 210
SWIDTH 582 0
DWIDTH 11 0
BBX 10 15 1 1
BITMAP
2200
1400
0800
0000
e3c0
6080
5080
5080
4880
4880
4480
4480
4280
4380
f180
ENDCHAR
STARTCHAR Oacute
ENCODING 211
SWIDTH 582 0
DWIDTH 11 0
BBX 10 14 1 1
BITMAP
0600
0800
0000
1e00
6180
4080
8040
8040
8040
8040
8040
4080
6180
1e00
ENDCHAR
STARTCHAR Ocircumflex
ENCODING 212
SWIDTH 582 0
DWIDTH 11 0
BBX 10 14 1 1
BITMAP
0400
0a00
0000
1e00
6180
4080
8040
8040
8040
8040
8040
4080
6180
1e00
ENDCHAR
STARTCHAR Ohungarumlaut
ENCODING 213
SWIDTH 582 0
DWIDTH 11 0
BBX 10 14 1 1
BITMAP
0900
1200
0000
1e00
6180
4080
8040
8040
8040
8040
8040
4080
6180
1e00
ENDCHAR
STARTCHAR Odieresis
ENCODING 214
SWIDTH 582 0
DWIDTH 11 0
BBX 10 14 1 1
BITMAP
1400
1400
0000
1e00
6180
4080
8040
8040
8040
8040
8040
4080
6180
1e00
ENDCHAR
STARTCHAR multiply
ENCODING 215
SWIDTH 582 0
DWIDTH 11 0
BBX 7 7 2 3
BITMAP
82
44
28
10
28
44
82
ENDCHAR
STARTCHAR Rcaron
ENCODING 216
SWIDTH 582 0
DWIDTH 11 0
BBX 10 15 1 1
BITMAP
2200
1400
0800
0000
fe00
4100
4100
4100
4300
7e00
4400
4200
4200
4100
f1c0
ENDCHAR
STARTCHAR Uring
ENCODING 217
SWIDTH 582 0
DWIDTH 11 0
BBX 11 15 0 1
BITMAP
0600
0900
0600
0000
f9e0
2040
2040
2040
2040
2040
2040
2040
2040
1080
0f00
ENDCHAR
STARTCHAR Uacute
ENCODING 218
SWIDTH 582 0
DWIDTH 11 0
BBX 11 14 0 1
BITMAP
0300
0400
0000
f9e0
2040
2040
2040
2040
2040
2040
2040
2040
1080
0f00
ENDCHAR
STARTCHAR Uhungarumlaut
ENCODING 219
SWIDTH 582 0
DWIDTH 11 0
BBX 11 14 0 1
BITMAP
0480
0900
0000
f9e0
2040
2040
2040
2040
2040
2040
2040
2040
1080
0f00
ENDCHAR
STARTCHAR Udieresis
ENCODING 220
SWIDTH 582 0
DWIDTH 11 0
BBX 11 14 0 1
BITMAP
0a00
0a00
0000
f9e0
2040
2040
2040
2040
2040
2040
2040
2040
1080
0f00
ENDCHAR
STARTCHAR Yacute
ENCODING 221
SWIDTH 582 0
DWIDTH 11 0
BBX 11 14 0 1
BITMAP
0300
0400
0000
f1e0
2080
2080
1100
1100
0a00
0400
0400
0400
0400
1f00
ENDCHAR
STARTCHAR Tcedilla
ENCODING 222
SWIDTH 582 0
DWIDTH 11 0
BBX 10 14 1 -2
BITMAP
ff80
8880
8880
8880
8880
0800
0800
0800
0800
0800
3e00
0800
0400
1c00
ENDCHAR
STARTCHAR germandbls
ENCODING 223
SWIDTH 582 0
DWIDTH 11 0
BBX 9 12 1 1
BITMAP
1c00
2200
2200
2200
2200
2c00
2300
2080
2080
2080
2100
ee00
ENDCHAR
STARTCHAR racute
ENCODING 224
SWIDTH 582 0
DWIDTH 11 0
BBX 10 12 1 1
BITMAP
0600
0800
0000
0000
73c0
1c00
1000
1000
1000
1000
1000
fe00
ENDCHAR
STARTCHAR aacute
ENCODING 225
SWIDTH 582 0
DWIDTH 11 0
BBX 9 12 1 1
BITMAP
0600
0800
0000
0000
3e00
0100
0100
3f00
c100
8100
8300
7d80
ENDCHAR
STARTCHAR acircumflex
ENCODING 226
SWIDTH 582 0
DWIDTH 11 0
BBX 9 12 1 1
BITMAP
0800
1400
0000
0000
3e00
0100
0100
3f00
c100
8100
8300
7d80
ENDCHAR
STARTCHAR abreve
ENCODING 227
SWIDTH 582 0
DWIDTH 11 0
BBX 9 12 1 1
BITMAP
2200
1c00
0000
0000
3e00
0100
0100
3f00
c100
8100
8300
7d80
ENDCHAR
STARTCHAR adieresis
ENCODING 228
SWIDTH 582 0
DWIDTH 11 0
BBX 9 12 1 1
BITMAP
1400
1400
0000
0000
3e00
0100
0100
3f00
c100
8100
8300
7d80
ENDCHAR
STARTCHAR lacute
ENCODING 229
SWIDTH 582 0
DWIDTH 11 0
BBX 7 14 2 1
BITMAP
0c
10
f0
10
10
10
10
10
10
10
10
10
10
fe
ENDCHAR
STARTCHAR cacute
ENCODING 230
SWIDTH 582 0
DWIDTH 11 0
BBX 9 12 1 1
BITMAP
0200
0400
0800
0000
3e80
4180
8080
8000
8000
8000
4180
3e00
ENDCHAR
STARTCHAR ccedilla
ENCODING 231
SWIDTH 582 0
DWIDTH 11 0
BBX 9 11 1 -2
BITMAP
3e80
4180
8080
8000
8000
8000
4180
3e00
0800
0400
1c00
ENDCHAR
STARTCHAR ccaron
ENCODING 232
SWIDTH 582 0
DWIDTH 11 0
BBX 9 12 1 1
BITMAP
2200
1400
0800
0000
3e80
4180
8080
8000
8000
8000
4180
3e00
ENDCHAR
STARTCHAR eacute
ENCODING 233
SWIDTH 582 0
DWIDTH 11 0
BBX 10 12 1 1
BITMAP
0200
0400
0800
0000
3e00
4100
8080
ff80
8000
8000
4180
3e00
ENDCHAR
STARTCHAR eogonek
ENCODING 234
SWIDTH 582 0
DWIDTH 11 0
BBX 10 10 1 -1
BITMAP
3e00
4100
8080
ff80
8000
8000
4180
3e00
0400
0600
ENDCHAR
STARTCHAR edieresis
ENCODING 235
SWIDTH 582 0
DWIDTH 11 0
BBX 10 12 1 1
BITMAP
1400
1400
0000
0000
3e00
4100
8080
ff80
8000
8000
4180
3e00
ENDCHAR
STARTCHAR ecaron
ENCODING 236
SWIDTH 582 0
DWIDTH 11 0
BBX 10 12 1 1
BITMAP
2200
1400
0800
0000
3e00
4100
8080
ff80
8000
8000
4080
3f00
ENDCHAR
STARTCHAR iacute
ENCODING 237
SWIDTH 582 0
DWIDTH 11 0
BBX 7 12 2 1
BITMAP
08
10
20
00
f0
10
10
10
10
10
10
fe
ENDCHAR
STARTCHAR icircumflex
ENCODING 238
SWIDTH 582 0
DWIDTH 11 0
BBX 7 12 2 1
BITMAP
10
28
44
00
f0
10
10
10
10
10
10
fe
ENDCHAR
STARTCHAR dcaron
ENCODING 239
SWIDTH 582 0
DWIDTH 11 0
BBX 12 12 1 1
BITMAP
0360
0140
0100
0100
3d00
4300
8100
8100
8100
8100
4300
3dc0
ENDCHAR
STARTCHAR dbar
ENCODING 240
SWIDTH 582 0
DWIDTH 11 0
BBX 10 12 1 1
BITMAP
0300
0100
1fc0
0100
3d00
4300
8100
8100
8100
8100
4300
3dc0
ENDCHAR
STARTCHAR nacute
ENCODING 241
SWIDTH 582 0
DWIDTH 11 0
BBX 10 12 1 1
BITMAP
0400
0800
1000
0000
de00
6100
4100
4100
4100
4100
4100
f3c0
ENDCHAR
STARTCHAR ncaron
ENCODING 242
SWIDTH 582 0
DWIDTH 11 0
BBX 10 12 1 1
BITMAP
2200
1400
0800
0000
de00
6100
4100
4100
4100
4100
4100
f3c0
ENDCHAR
STARTCHAR oacute
ENCODING 243
SWIDTH 582 0
DWIDTH 11 0
BBX 9 12 1 1
BITMAP
0400
0800
1000
0000
3e00
4100
8080
8080
8080
8080
4100
3e00
ENDCHAR
STARTCHAR ocircumflex
ENCODING 244
SWIDTH 582 0
DWIDTH 11 0
BBX 9 12 1 1
BITMAP
0800
1400
2200
0000
3e00
4100
8080
8080
8080
8080
4100
3e00
ENDCHAR
STARTCHAR ohungarumlaut
ENCODING 245
SWIDTH 582 0
DWIDTH 11 0
BBX 9 12 1 1
BITMAP
0900
1200
2400
0000
3e00
4100
8080
8080
8080
8080
4100
3e00
ENDCHAR
STARTCHAR odieresis
ENCODING 246
SWIDTH 582 0
DWIDTH 11 0
BBX 9 12 1 1
BITMAP
1400
1400
0000
0000
3e00
4100
8080
8080
8080
8080
4100
3e00
ENDCHAR
STARTCHAR divide
ENCODING 247
SWIDTH 582 0
DWIDTH 11 0
BBX 9 9 1 2
BITMAP
0800
0800
0000
0000
ff80
0000
0000
0800
0800
ENDCHAR
STARTCHAR rcaron
ENCODING 248
SWIDTH 582 0
DWIDTH 11 0
BBX 10 12 1 1
BITMAP
2200
1400
0800
0000
73c0
1c00
1000
1000
1000
1000
1000
fe00
ENDCHAR
STARTCHAR uring
ENCODING 249
SWIDTH 582 0
DWIDTH 11 0
BBX 10 12 1 1
BITMAP
1800
2400
1800
0000
c700
4100
4100
4100
4100
4100
4300
3dc0
ENDCHAR
STARTCHAR uacute
ENCODING 250
SWIDTH 582 0
DWIDTH 11 0
BBX 10 12 1 1
BITMAP
0400
0800
1000
0000
c700
4100
4100
4100
4100
4100
4300
3dc0
ENDCHAR
STARTCHAR uhungarumlaut
ENCODING 251
SWIDTH 582 0
DWIDTH 11 0
BBX 10 12 1 1
BITMAP
0900
1200
2400
0000
c700
4100
4100
4100
4100
4100
4300
3dc0
ENDCHAR
STARTCHAR udieresis
ENCODING 252
SWIDTH 582 0
DWIDTH 11 0
BBX 10 12 1 1
BITMAP
1400
1400
0000
0000
c700
4100
4100
4100
4100
4100
4300
3dc0
ENDCHAR
STARTCHAR yacute
ENCODING 253
SWIDTH 582 0
DWIDTH 11 0
BBX 11 15 0 -2
BITMAP
0100
0200
0400
0000
f0e0
4040
2080
2080
1100
0a00
0400
0400
0800
0800
7c00
ENDCHAR
STARTCHAR tcedilla
ENCODING 254
SWIDTH 582 0
DWIDTH 11 0
BBX 8 14 2 -2
BITMAP
40
40
40
fe
40
40
40
40
40
41
3e
08
04
3c
ENDCHAR
STARTCHAR dotaccent
ENCODING 255
SWIDTH 582 0
DWIDTH 11 0
BBX 1 2 5 11
BITMAP
80
80
ENDCHAR
ENDFONT
